<svg width="156" height="45" viewBox="0 0 156 45" fill="none" xmlns="http://www.w3.org/2000/svg">
<path d="M65.6347 10.7273H71.1801V26.8182C71.1725 28.3258 70.8127 29.6439 70.1006 30.7727C69.3884 31.8939 68.4036 32.7652 67.146 33.3864C65.896 34.0076 64.4491 34.3182 62.8051 34.3182C61.3506 34.3182 60.0286 34.0644 58.8392 33.5568C57.6574 33.0492 56.7142 32.2614 56.0097 31.1932C55.3127 30.125 54.968 28.7576 54.9756 27.0909H60.5778C60.6006 27.6894 60.7142 28.2008 60.9188 28.625C61.1309 29.0417 61.4225 29.3561 61.7938 29.5682C62.165 29.7803 62.6081 29.8864 63.1233 29.8864C63.6612 29.8864 64.1157 29.7727 64.4869 29.5455C64.8581 29.3106 65.1384 28.9659 65.3278 28.5114C65.5248 28.0568 65.6271 27.4924 65.6347 26.8182V10.7273ZM83.1791 34.3295C81.3458 34.3295 79.77 33.9545 78.4518 33.2045C77.1412 32.447 76.1298 31.3939 75.4177 30.0455C74.7132 28.6894 74.3609 27.1174 74.3609 25.3295C74.3609 23.5341 74.7132 21.9621 75.4177 20.6136C76.1298 19.2576 77.1412 18.2045 78.4518 17.4545C79.77 16.697 81.3458 16.3182 83.1791 16.3182C85.0124 16.3182 86.5844 16.697 87.895 17.4545C89.2132 18.2045 90.2245 19.2576 90.9291 20.6136C91.6412 21.9621 91.9973 23.5341 91.9973 25.3295C91.9973 27.1174 91.6412 28.6894 90.9291 30.0455C90.2245 31.3939 89.2132 32.447 87.895 33.2045C86.5844 33.9545 85.0124 34.3295 83.1791 34.3295ZM83.2132 30.1364C83.8798 30.1364 84.4442 29.9318 84.9064 29.5227C85.3685 29.1136 85.7208 28.5455 85.9632 27.8182C86.2132 27.0909 86.3382 26.25 86.3382 25.2955C86.3382 24.3258 86.2132 23.4773 85.9632 22.75C85.7208 22.0227 85.3685 21.4545 84.9064 21.0455C84.4442 20.6364 83.8798 20.4318 83.2132 20.4318C82.5238 20.4318 81.9405 20.6364 81.4632 21.0455C80.9935 21.4545 80.6336 22.0227 80.3836 22.75C80.1412 23.4773 80.02 24.3258 80.02 25.2955C80.02 26.25 80.1412 27.0909 80.3836 27.8182C80.6336 28.5455 80.9935 29.1136 81.4632 29.5227C81.9405 29.9318 82.5238 30.1364 83.2132 30.1364ZM95.1639 34V10.7273H100.721V19.5341H100.834C101.062 19.0038 101.384 18.4924 101.8 18C102.224 17.5076 102.762 17.1061 103.414 16.7955C104.073 16.4773 104.861 16.3182 105.778 16.3182C106.99 16.3182 108.122 16.6364 109.175 17.2727C110.236 17.9091 111.092 18.8902 111.743 20.2159C112.395 21.5417 112.721 23.2311 112.721 25.2841C112.721 27.2614 112.406 28.9167 111.778 30.25C111.156 31.5833 110.315 32.5833 109.255 33.25C108.202 33.9167 107.031 34.25 105.743 34.25C104.865 34.25 104.103 34.1061 103.459 33.8182C102.815 33.5303 102.274 33.1515 101.834 32.6818C101.403 32.2121 101.069 31.7083 100.834 31.1705H100.664V34H95.1639ZM100.607 25.2727C100.607 26.2121 100.732 27.0303 100.982 27.7273C101.24 28.4242 101.607 28.9659 102.084 29.3523C102.569 29.7311 103.149 29.9205 103.823 29.9205C104.505 29.9205 105.084 29.7311 105.562 29.3523C106.039 28.9659 106.399 28.4242 106.641 27.7273C106.891 27.0303 107.016 26.2121 107.016 25.2727C107.016 24.3333 106.891 23.5189 106.641 22.8295C106.399 22.1402 106.039 21.6061 105.562 21.2273C105.092 20.8485 104.512 20.6591 103.823 20.6591C103.141 20.6591 102.562 20.8447 102.084 21.2159C101.607 21.5871 101.24 22.1174 100.982 22.8068C100.732 23.4962 100.607 24.3182 100.607 25.2727ZM115.953 34V16.5455H121.509V34H115.953ZM118.737 14.5114C117.956 14.5114 117.286 14.2538 116.725 13.7386C116.165 13.2159 115.884 12.5871 115.884 11.8523C115.884 11.125 116.165 10.5038 116.725 9.98864C117.286 9.46591 117.956 9.20454 118.737 9.20454C119.525 9.20454 120.195 9.46591 120.748 9.98864C121.309 10.5038 121.589 11.125 121.589 11.8523C121.589 12.5871 121.309 13.2159 120.748 13.7386C120.195 14.2538 119.525 14.5114 118.737 14.5114ZM135.287 16.5455V20.6364H124.06V16.5455H135.287ZM126.4 34V15.6591C126.4 14.3106 126.654 13.1932 127.162 12.3068C127.669 11.4129 128.374 10.7462 129.275 10.3068C130.177 9.85985 131.219 9.63636 132.4 9.63636C133.173 9.63636 133.9 9.69697 134.582 9.81818C135.272 9.93182 135.783 10.0341 136.116 10.125L135.23 14.1932C135.025 14.125 134.775 14.0682 134.48 14.0227C134.192 13.9773 133.919 13.9545 133.662 13.9545C133.01 13.9545 132.563 14.0985 132.321 14.3864C132.078 14.6742 131.957 15.0682 131.957 15.5682V34H126.4ZM141.678 40.5455C141.011 40.5455 140.382 40.4924 139.791 40.3864C139.201 40.2879 138.693 40.1553 138.269 39.9886L139.496 35.9545C140.041 36.1364 140.534 36.2424 140.973 36.2727C141.42 36.303 141.803 36.2311 142.121 36.0568C142.447 35.8902 142.697 35.5909 142.871 35.1591L143.087 34.6364L136.882 16.5455H142.701L145.916 29H146.098L149.36 16.5455H155.212L148.632 35.6705C148.314 36.625 147.863 37.4659 147.28 38.1932C146.704 38.928 145.958 39.5038 145.041 39.9205C144.132 40.3371 143.011 40.5455 141.678 40.5455Z" fill="#3B82F6"/>
<rect width="43.875" height="45" rx="7" fill="#3B82F6"/>
<path d="M23.8206 8.54545H29.886V26.1449C29.8777 27.7938 29.4841 29.2356 28.7052 30.4702C27.9263 31.6965 26.8492 32.6494 25.4737 33.3288C24.1065 34.0083 22.5239 34.348 20.7258 34.348C19.1349 34.348 17.689 34.0704 16.3881 33.5153C15.0955 32.9601 14.0639 32.0984 13.2933 30.93C12.531 29.7617 12.154 28.2661 12.1622 26.4432H18.2897C18.3146 27.0978 18.4389 27.6571 18.6626 28.1211C18.8946 28.5768 19.2136 28.9207 19.6196 29.1527C20.0256 29.3847 20.5104 29.5007 21.0738 29.5007C21.6621 29.5007 22.1593 29.3764 22.5653 29.1278C22.9713 28.871 23.2779 28.494 23.485 27.9968C23.7005 27.4996 23.8123 26.8823 23.8206 26.1449V8.54545Z" fill="white"/>
</svg>
